<?xml version="1.0" encoding="UTF-8"?>
<!-- Created with Inkscape (http://www.inkscape.org/) -->
<svg width="140" height="140" version="1.1" viewBox="0 0 1008 1008" xmlns="http://www.w3.org/2000/svg">
 <g stroke-width="1.2374">
  <path d="m506.23 188.53c-16.283-0.13388-32.46 0.3459-41.755 1.4918-43.841 5.4046-90.525 19.537-128.85 39.015-88.823 66.466-150.27 117.03-189.19 222.89-37.508 112.86-21.078 239.12 44.064 338.54 35.59 54.318 86.77 100.75 143.78 130.46 38.641 20.134 80.791 33.139 128.41 39.603 16.55 2.2468 72.485 1.4834 91.513-1.2479 60.613-8.7 118.64-32.066 167.05-67.258 50.158-36.462 90.938-84.584 118.65-140.02 40.151-80.318 51.688-168.82 33.478-256.88-15.504-74.975-52.627-143.66-106.98-197.97-27.857-27.84-63.092-52.932-98.986-70.485-39.562-19.347-75.041-30.083-118.79-35.945-9.7186-1.3021-26.102-2.0464-42.386-2.1802z" fill="#800000"/>
  <path d="m240.99 55.509c-1.4098 1.5743-8.6942 4.058-19.378 11.274-6.3946 4.319-31.631 28.007-39.846 36.203-26.221 26.157-41.918 54.845-49.644 90.753-3.8745 18.007-3.8384 49.15 0.0861 67.674 8.5087 40.161 26.463 72.878 56.801 103.52 9.049 9.1392 34.276 31.139 40.37 34.317 4.3471 2.2672 4.1178 2.2755 16.567-0.0861 28.534-5.4128 56.161-41.065 66.806-62.544 4.0478-8.168 5.1326-11.874 5.8379-20.081 1.3786-16.042-0.28077-30.09-5.1351-43.533l-4.2458-11.762-10.385-7.387c-23.491-16.72-40.59-36.831-53.689-63.141-12.502-25.112-16.987-43.604-16.969-69.911 0.0125-18.354 3.1398-35.466 9.6964-52.971 2.3922-6.3868 4.0724-11.878 3.7437-12.207-0.1153-0.11538-0.41538-0.33965-0.61675-0.11479zm502.25 12.508c-0.30404 0.30375 1.4349 4.4964 3.8585 9.3091 10.819 21.485 16.324 42.493 17.542 66.698 0.022 0.5605 0.0793 1.0832 0.10062 1.6495 0.0367 1.0402 0.0294 1.9234 0.0588 2.9261 0.71971 25.987-3.6447 46.244-14.846 68.52l-6.4404 12.795-10.772 30.725c39.772 24.795 78.641 84.833 94.422 105.74 11.065 14.659 16.357-28.578 25.447-47.421 11.328-23.479 15.711-45.593 14.215-71.776-1.0566-18.494-3.0448-29.093-8.5632-45.584-11.427-34.151-34.099-68.326-60.516-91.241-10.233-8.8762-53.476-43.371-54.505-42.342z" fill="#e9c6af"/>
 </g>
 <g transform="translate(-56.06 -.31131)">
  <path d="m522.37 990.42c-79.162-8.2089-151.07-37.592-213.29-87.149-16.653-13.265-49.297-45.765-62.146-61.872-32.446-40.672-55.439-82.662-71.735-131-35.799-106.19-27.542-224.27 22.672-324.22l8.6493-17.217-2.2247-2.7832c-5.9533-7.448-18.93-28.032-24.293-38.535-16.873-33.042-24.218-63.019-24.317-99.249-0.1313-47.711 14.068-89.828 43.017-127.6 30.146-39.328 74.046-67.721 125.2-80.973 16.558-4.2897 21.477-3.872 28.02 2.3793 6.2347 5.9565 8.9522 14.042 7.0693 21.034-0.8637 3.2079-3.4755 6.4232-12.277 15.115-19.042 18.804-29.381 37.895-33.645 62.126-1.8513 10.521-0.8485 33.712 1.9129 44.241 2.6467 10.092 7.1827 21.751 11.35 29.173 4.0728 7.2541 13.836 20.812 17.409 24.176l2.8427 2.6763 14-7.9954c42.797-24.441 73.097-35.964 119.18-45.322 81.933-16.638 163.92-8.0084 240.32 25.296 14.421 6.286 35.086 16.999 47.771 24.766 5.8218 3.5643 11.068 6.2943 11.657 6.0666 1.4619-0.5646 7.8903-12.302 11.015-20.113 5.203-13.006 6.9301-22.769 6.9961-39.55 0.069-17.528-1.0431-24.648-6.159-39.434-6.9034-19.952-16.421-34.776-32.504-50.629-11.34-11.176-13.782-15.108-13.766-22.155 0.012-5.427 3.8729-13.82 7.4284-16.15 4.4678-2.9275 8.4338-2.9632 19.413-0.175 29.569 7.5092 60.944 23.812 86.533 44.966 40.095 33.145 69.371 77.16 83.017 124.82 11.052 38.595 11.066 73.598 0.044 107.76-5.3295 16.519-14.506 33.373-24.595 45.171-2.6673 3.119-4.8496 6.1247-4.8496 6.6792s3.7459 8.3525 8.3242 17.329c11.049 21.664 17.611 37.372 25.198 60.321 14.245 43.087 20.142 77.784 21.162 124.5 1.9146 87.696-22.096 171.1-69.958 243-51.217 76.942-124.58 133.15-211.93 162.38-20.611 6.8958-49.44 13.453-73.297 16.672-20.628 2.783-68.887 3.5789-89.211 1.4713zm85.211-37.399c81.919-11.576 153.61-47.192 211.54-105.09 71.728-71.69 111.96-169.42 111.96-271.98 0-112.92-48.863-219.82-133.87-292.88-19.232-16.53-50.379-37.263-73.091-48.653-66.078-33.139-139.77-45.635-212.04-35.953-38.104 5.1049-87.382 20.765-120 38.135-16.431 8.75-15.554 7.8029-11.024 11.895 6.9537 6.2823 15.637 26.282 19.712 45.403 1.3649 6.4036 1.8049 12.816 1.7842 26-0.025 15.9-0.2751 18.394-2.7352 27.284-9.7656 35.285-34.143 60.579-70.868 73.532-15.745 5.5533-45.924 9.7554-52.813 7.3538-4.1732-1.4548-26.095-16.756-35.488-24.771-5.806-4.9539-7.6272-6.0313-8.4729-5.0123-1.8729 2.2568-10.61 21.582-16.327 36.114-26.952 68.505-33.573 145.82-18.712 218.5 12.598 61.609 38.251 116.13 78.315 166.44 10.599 13.311 42.426 44.954 55.751 55.429 59.512 46.785 122.72 72.429 197.38 80.076 15.2 1.5569 62.861 0.4563 79-1.8243zm-97.015-76.05c-2.758-0.4376-11.308-2.6824-19-4.9884-99.585-29.856-172.32-103.84-203.57-207.08-6.7764-22.382-12.107-54.748-12.28-74.565l-0.1318-15.065 2.893-3.8061c7.6004-9.9992 24.628-11.8 32.232-3.4095 4.2757 4.7182 4.7114 6.8526 5.4803 26.845 0.7598 19.758 1.6377 28.058 4.4949 42.5 6.7727 34.234 19.245 63.691 39.702 93.77 20.415 30.016 48.986 57.514 80.352 77.336 21.065 13.312 50.611 25.581 74.692 31.017 13.594 3.0686 16.567 4.2986 19.864 8.2166 7.3045 8.6809 5.6081 20.636-3.8478 27.115-3.7558 2.5735-12.448 3.4553-20.878 2.1179zm-277.99-309.68c-6.6422-3.6357-10.5-9.5849-10.5-16.192 0-8.2484 10.737-23.958 23.762-34.767 7.6436-6.3431 23.578-14.5 33.238-17.016 18.77-4.8873 29.975 0.5614 30.751 14.953 0.2677 4.9685-0.1038 6.8772-1.9608 10.074-2.9583 5.0928-6.9493 7.3457-18.168 10.256-5.0169 1.3014-11.52 3.8138-14.45 5.583-5.6532 3.4127-13.395 11.163-19.171 19.195-1.925 2.6762-4.7315 5.7719-6.2366 6.8792-3.6983 2.7209-13.148 3.2873-17.263 1.0347zm70.5-178.07c31.528-6.5369 53.322-25.01 60.634-51.393 1.3173-4.7531 1.7595-9.8169 1.6964-19.429-0.093-14.16-1.517-21.268-7.2275-36.076l-3.0907-8.0145-9.1705-6.355c-11.77-8.1568-23.547-18.552-30.516-26.935-40.758-49.033-50.756-107.17-27.673-160.91 1.9647-4.5744 3.3401-8.5491 3.0563-8.8329-0.6914-0.6914-7.3412 2.7615-16.065 8.342-56.21 35.957-87.864 97.707-82.674 161.28 3.8101 46.671 24.335 88.889 60.457 124.35 9.4425 9.2703 26.977 23.074 31.986 25.18 3.2563 1.3691 7.4673 1.0949 18.586-1.2106zm592.39-58.153c8.3901-13.291 15.083-30.188 18.727-47.281 1.7943-8.4162 2.2208-13.708 2.2479-27.887 0.045-23.476-2.8527-39.476-11.047-61-16.001-42.032-43.675-76.298-81.709-101.17-11.522-7.5355-15.264-9.509-16.22-8.5538-0.2508 0.2509 1.3122 3.7795 3.4735 7.8413 9.5525 17.953 16.316 40.895 18.214 61.778 2.7696 30.483-4.0222 61.046-18.751 84.378-1.3461 2.1324-2.3083 4.4466-2.1383 5.1427s4.5841 4.8067 9.8091 9.1345c21.762 18.025 57.118 56.269 71.386 77.215 1.5873 2.3303 3.0442 4.2369 3.2375 4.2369s1.44-1.7244 2.7704-3.832z"/>
 </g>
</svg>
